<?xml version="1.0" encoding="utf-8" standalone="no"?>
<!DOCTYPE svg PUBLIC "-//W3C//DTD SVG 1.1//EN"
  "http://www.w3.org/Graphics/SVG/1.1/DTD/svg11.dtd">
<svg xmlns:xlink="http://www.w3.org/1999/xlink" width="504.104405pt" height="226.644406pt" viewBox="0 0 504.104405 226.644406" xmlns="http://www.w3.org/2000/svg" version="1.1">
 <metadata>
  <rdf:RDF xmlns:dc="http://purl.org/dc/elements/1.1/" xmlns:cc="http://creativecommons.org/ns#" xmlns:rdf="http://www.w3.org/1999/02/22-rdf-syntax-ns#">
   <cc:Work>
    <dc:type rdf:resource="http://purl.org/dc/dcmitype/StillImage"/>
    <dc:date>2026-04-02T21:28:47.000937</dc:date>
    <dc:format>image/svg+xml</dc:format>
    <dc:creator>
     <cc:Agent>
      <dc:title>Matplotlib v3.10.8, https://matplotlib.org/</dc:title>
     </cc:Agent>
    </dc:creator>
   </cc:Work>
  </rdf:RDF>
 </metadata>
 <defs>
  <style type="text/css">*{stroke-linejoin: round; stroke-linecap: butt}</style>
 </defs>
 <g id="figure_1">
  <g id="patch_1">
   <path d="M 0 226.644406 
L 504.104405 226.644406 
L 504.104405 0 
L 0 0 
z
" style="fill: #ffffff"/>
  </g>
  <g id="axes_1">
   <g id="patch_2">
    <path d="M 45.336094 191.988 
L 495.830207 191.988 
L 495.830207 7.2 
L 45.336094 7.2 
z
" style="fill: #ffffff"/>
   </g>
   <g id="patch_3">
    <path d="M 45.336094 191.988 
L 372.968176 191.988 
L 372.968176 7.2 
L 45.336094 7.2 
z
" clip-path="url(#pf3681e471f)" style="fill: #efefef; opacity: 0.55; stroke: #efefef; stroke-linejoin: miter"/>
   </g>
   <g id="patch_4">
    <path d="M 372.968176 191.988 
L 482.17887 191.988 
L 482.17887 7.2 
L 372.968176 7.2 
z
" clip-path="url(#pf3681e471f)" style="fill: #fdecea; opacity: 0.65; stroke: #fdecea; stroke-linejoin: miter"/>
   </g>
   <g id="matplotlib.axis_1">
    <g id="xtick_1">
     <g id="line2d_1">
      <defs>
       <path id="m156ceda490" d="M 0 0 
L 0 3 
" style="stroke: #000000; stroke-width: 0.8"/>
      </defs>
      <g>
       <use xlink:href="#m156ceda490" x="45.336094" y="191.988" style="stroke: #000000; stroke-width: 0.8"/>
      </g>
     </g>
     <g id="text_1">
      <!-- -48 h -->
      <g transform="translate(34.350508 204.946672) scale(0.085 -0.085)">
       <defs>
        <path id="DejaVuSans-2d" d="M 313 2009 
L 1997 2009 
L 1997 1497 
L 313 1497 
L 313 2009 
z
" transform="scale(0.015625)"/>
        <path id="DejaVuSans-34" d="M 2419 4116 
L 825 1625 
L 2419 1625 
L 2419 4116 
z
M 2253 4666 
L 3047 4666 
L 3047 1625 
L 3713 1625 
L 3713 1100 
L 3047 1100 
L 3047 0 
L 2419 0 
L 2419 1100 
L 313 1100 
L 313 1709 
L 2253 4666 
z
" transform="scale(0.015625)"/>
        <path id="DejaVuSans-38" d="M 2034 2216 
Q 1584 2216 1326 1975 
Q 1069 1734 1069 1313 
Q 1069 891 1326 650 
Q 1584 409 2034 409 
Q 2484 409 2743 651 
Q 3003 894 3003 1313 
Q 3003 1734 2745 1975 
Q 2488 2216 2034 2216 
z
M 1403 2484 
Q 997 2584 770 2862 
Q 544 3141 544 3541 
Q 544 4100 942 4425 
Q 1341 4750 2034 4750 
Q 2731 4750 3128 4425 
Q 3525 4100 3525 3541 
Q 3525 3141 3298 2862 
Q 3072 2584 2669 2484 
Q 3125 2378 3379 2068 
Q 3634 1759 3634 1313 
Q 3634 634 3220 271 
Q 2806 -91 2034 -91 
Q 1263 -91 848 271 
Q 434 634 434 1313 
Q 434 1759 690 2068 
Q 947 2378 1403 2484 
z
M 1172 3481 
Q 1172 3119 1398 2916 
Q 1625 2713 2034 2713 
Q 2441 2713 2670 2916 
Q 2900 3119 2900 3481 
Q 2900 3844 2670 4047 
Q 2441 4250 2034 4250 
Q 1625 4250 1398 4047 
Q 1172 3844 1172 3481 
z
" transform="scale(0.015625)"/>
        <path id="DejaVuSans-20" transform="scale(0.015625)"/>
        <path id="DejaVuSans-68" d="M 3513 2113 
L 3513 0 
L 2938 0 
L 2938 2094 
Q 2938 2591 2744 2837 
Q 2550 3084 2163 3084 
Q 1697 3084 1428 2787 
Q 1159 2491 1159 1978 
L 1159 0 
L 581 0 
L 581 4863 
L 1159 4863 
L 1159 2956 
Q 1366 3272 1645 3428 
Q 1925 3584 2291 3584 
Q 2894 3584 3203 3211 
Q 3513 2838 3513 2113 
z
" transform="scale(0.015625)"/>
       </defs>
       <use xlink:href="#DejaVuSans-2d"/>
       <use xlink:href="#DejaVuSans-34" transform="translate(36.083984 0)"/>
       <use xlink:href="#DejaVuSans-38" transform="translate(99.707031 0)"/>
       <use xlink:href="#DejaVuSans-20" transform="translate(163.330078 0)"/>
       <use xlink:href="#DejaVuSans-68" transform="translate(195.117188 0)"/>
      </g>
     </g>
    </g>
    <g id="xtick_2">
     <g id="line2d_2">
      <g>
       <use xlink:href="#m156ceda490" x="154.546788" y="191.988" style="stroke: #000000; stroke-width: 0.8"/>
      </g>
     </g>
     <g id="text_2">
      <!-- -36 h -->
      <g transform="translate(143.561202 204.946672) scale(0.085 -0.085)">
       <defs>
        <path id="DejaVuSans-33" d="M 2597 2516 
Q 3050 2419 3304 2112 
Q 3559 1806 3559 1356 
Q 3559 666 3084 287 
Q 2609 -91 1734 -91 
Q 1441 -91 1130 -33 
Q 819 25 488 141 
L 488 750 
Q 750 597 1062 519 
Q 1375 441 1716 441 
Q 2309 441 2620 675 
Q 2931 909 2931 1356 
Q 2931 1769 2642 2001 
Q 2353 2234 1838 2234 
L 1294 2234 
L 1294 2753 
L 1863 2753 
Q 2328 2753 2575 2939 
Q 2822 3125 2822 3475 
Q 2822 3834 2567 4026 
Q 2313 4219 1838 4219 
Q 1578 4219 1281 4162 
Q 984 4106 628 3988 
L 628 4550 
Q 988 4650 1302 4700 
Q 1616 4750 1894 4750 
Q 2613 4750 3031 4423 
Q 3450 4097 3450 3541 
Q 3450 3153 3228 2886 
Q 3006 2619 2597 2516 
z
" transform="scale(0.015625)"/>
        <path id="DejaVuSans-36" d="M 2113 2584 
Q 1688 2584 1439 2293 
Q 1191 2003 1191 1497 
Q 1191 994 1439 701 
Q 1688 409 2113 409 
Q 2538 409 2786 701 
Q 3034 994 3034 1497 
Q 3034 2003 2786 2293 
Q 2538 2584 2113 2584 
z
M 3366 4563 
L 3366 3988 
Q 3128 4100 2886 4159 
Q 2644 4219 2406 4219 
Q 1781 4219 1451 3797 
Q 1122 3375 1075 2522 
Q 1259 2794 1537 2939 
Q 1816 3084 2150 3084 
Q 2853 3084 3261 2657 
Q 3669 2231 3669 1497 
Q 3669 778 3244 343 
Q 2819 -91 2113 -91 
Q 1303 -91 875 529 
Q 447 1150 447 2328 
Q 447 3434 972 4092 
Q 1497 4750 2381 4750 
Q 2619 4750 2861 4703 
Q 3103 4656 3366 4563 
z
" transform="scale(0.015625)"/>
       </defs>
       <use xlink:href="#DejaVuSans-2d"/>
       <use xlink:href="#DejaVuSans-33" transform="translate(36.083984 0)"/>
       <use xlink:href="#DejaVuSans-36" transform="translate(99.707031 0)"/>
       <use xlink:href="#DejaVuSans-20" transform="translate(163.330078 0)"/>
       <use xlink:href="#DejaVuSans-68" transform="translate(195.117188 0)"/>
      </g>
     </g>
    </g>
    <g id="xtick_3">
     <g id="line2d_3">
      <g>
       <use xlink:href="#m156ceda490" x="263.757482" y="191.988" style="stroke: #000000; stroke-width: 0.8"/>
      </g>
     </g>
     <g id="text_3">
      <!-- -24 h -->
      <g transform="translate(252.771896 204.946672) scale(0.085 -0.085)">
       <defs>
        <path id="DejaVuSans-32" d="M 1228 531 
L 3431 531 
L 3431 0 
L 469 0 
L 469 531 
Q 828 903 1448 1529 
Q 2069 2156 2228 2338 
Q 2531 2678 2651 2914 
Q 2772 3150 2772 3378 
Q 2772 3750 2511 3984 
Q 2250 4219 1831 4219 
Q 1534 4219 1204 4116 
Q 875 4013 500 3803 
L 500 4441 
Q 881 4594 1212 4672 
Q 1544 4750 1819 4750 
Q 2544 4750 2975 4387 
Q 3406 4025 3406 3419 
Q 3406 3131 3298 2873 
Q 3191 2616 2906 2266 
Q 2828 2175 2409 1742 
Q 1991 1309 1228 531 
z
" transform="scale(0.015625)"/>
       </defs>
       <use xlink:href="#DejaVuSans-2d"/>
       <use xlink:href="#DejaVuSans-32" transform="translate(36.083984 0)"/>
       <use xlink:href="#DejaVuSans-34" transform="translate(99.707031 0)"/>
       <use xlink:href="#DejaVuSans-20" transform="translate(163.330078 0)"/>
       <use xlink:href="#DejaVuSans-68" transform="translate(195.117188 0)"/>
      </g>
     </g>
    </g>
    <g id="xtick_4">
     <g id="line2d_4">
      <g>
       <use xlink:href="#m156ceda490" x="372.968176" y="191.988" style="stroke: #000000; stroke-width: 0.8"/>
      </g>
     </g>
     <g id="text_4">
      <!-- -12 h -->
      <g transform="translate(361.98259 204.946672) scale(0.085 -0.085)">
       <defs>
        <path id="DejaVuSans-31" d="M 794 531 
L 1825 531 
L 1825 4091 
L 703 3866 
L 703 4441 
L 1819 4666 
L 2450 4666 
L 2450 531 
L 3481 531 
L 3481 0 
L 794 0 
L 794 531 
z
" transform="scale(0.015625)"/>
       </defs>
       <use xlink:href="#DejaVuSans-2d"/>
       <use xlink:href="#DejaVuSans-31" transform="translate(36.083984 0)"/>
       <use xlink:href="#DejaVuSans-32" transform="translate(99.707031 0)"/>
       <use xlink:href="#DejaVuSans-20" transform="translate(163.330078 0)"/>
       <use xlink:href="#DejaVuSans-68" transform="translate(195.117188 0)"/>
      </g>
     </g>
    </g>
    <g id="xtick_5">
     <g id="line2d_5">
      <g>
       <use xlink:href="#m156ceda490" x="482.17887" y="191.988" style="stroke: #000000; stroke-width: 0.8"/>
      </g>
     </g>
     <g id="text_5">
      <!-- $T_0$ -->
      <g transform="translate(477.54637 204.946672) scale(0.085 -0.085)">
       <defs>
        <path id="DejaVuSans-Oblique-54" d="M 378 4666 
L 4325 4666 
L 4225 4134 
L 2559 4134 
L 1759 0 
L 1125 0 
L 1925 4134 
L 275 4134 
L 378 4666 
z
" transform="scale(0.015625)"/>
        <path id="DejaVuSans-30" d="M 2034 4250 
Q 1547 4250 1301 3770 
Q 1056 3291 1056 2328 
Q 1056 1369 1301 889 
Q 1547 409 2034 409 
Q 2525 409 2770 889 
Q 3016 1369 3016 2328 
Q 3016 3291 2770 3770 
Q 2525 4250 2034 4250 
z
M 2034 4750 
Q 2819 4750 3233 4129 
Q 3647 3509 3647 2328 
Q 3647 1150 3233 529 
Q 2819 -91 2034 -91 
Q 1250 -91 836 529 
Q 422 1150 422 2328 
Q 422 3509 836 4129 
Q 1250 4750 2034 4750 
z
" transform="scale(0.015625)"/>
       </defs>
       <use xlink:href="#DejaVuSans-Oblique-54" transform="translate(0 0.09375)"/>
       <use xlink:href="#DejaVuSans-30" transform="translate(61.083984 -16.3125) scale(0.7)"/>
      </g>
     </g>
    </g>
    <g id="text_6">
     <!-- Hours before vasopressor initiation ($T_0$) -->
     <g transform="translate(181.66315 217.554406) scale(0.09 -0.09)">
      <defs>
       <path id="DejaVuSans-48" d="M 628 4666 
L 1259 4666 
L 1259 2753 
L 3553 2753 
L 3553 4666 
L 4184 4666 
L 4184 0 
L 3553 0 
L 3553 2222 
L 1259 2222 
L 1259 0 
L 628 0 
L 628 4666 
z
" transform="scale(0.015625)"/>
       <path id="DejaVuSans-6f" d="M 1959 3097 
Q 1497 3097 1228 2736 
Q 959 2375 959 1747 
Q 959 1119 1226 758 
Q 1494 397 1959 397 
Q 2419 397 2687 759 
Q 2956 1122 2956 1747 
Q 2956 2369 2687 2733 
Q 2419 3097 1959 3097 
z
M 1959 3584 
Q 2709 3584 3137 3096 
Q 3566 2609 3566 1747 
Q 3566 888 3137 398 
Q 2709 -91 1959 -91 
Q 1206 -91 779 398 
Q 353 888 353 1747 
Q 353 2609 779 3096 
Q 1206 3584 1959 3584 
z
" transform="scale(0.015625)"/>
       <path id="DejaVuSans-75" d="M 544 1381 
L 544 3500 
L 1119 3500 
L 1119 1403 
Q 1119 906 1312 657 
Q 1506 409 1894 409 
Q 2359 409 2629 706 
Q 2900 1003 2900 1516 
L 2900 3500 
L 3475 3500 
L 3475 0 
L 2900 0 
L 2900 538 
Q 2691 219 2414 64 
Q 2138 -91 1772 -91 
Q 1169 -91 856 284 
Q 544 659 544 1381 
z
M 1991 3584 
L 1991 3584 
z
" transform="scale(0.015625)"/>
       <path id="DejaVuSans-72" d="M 2631 2963 
Q 2534 3019 2420 3045 
Q 2306 3072 2169 3072 
Q 1681 3072 1420 2755 
Q 1159 2438 1159 1844 
L 1159 0 
L 581 0 
L 581 3500 
L 1159 3500 
L 1159 2956 
Q 1341 3275 1631 3429 
Q 1922 3584 2338 3584 
Q 2397 3584 2469 3576 
Q 2541 3569 2628 3553 
L 2631 2963 
z
" transform="scale(0.015625)"/>
       <path id="DejaVuSans-73" d="M 2834 3397 
L 2834 2853 
Q 2591 2978 2328 3040 
Q 2066 3103 1784 3103 
Q 1356 3103 1142 2972 
Q 928 2841 928 2578 
Q 928 2378 1081 2264 
Q 1234 2150 1697 2047 
L 1894 2003 
Q 2506 1872 2764 1633 
Q 3022 1394 3022 966 
Q 3022 478 2636 193 
Q 2250 -91 1575 -91 
Q 1294 -91 989 -36 
Q 684 19 347 128 
L 347 722 
Q 666 556 975 473 
Q 1284 391 1588 391 
Q 1994 391 2212 530 
Q 2431 669 2431 922 
Q 2431 1156 2273 1281 
Q 2116 1406 1581 1522 
L 1381 1569 
Q 847 1681 609 1914 
Q 372 2147 372 2553 
Q 372 3047 722 3315 
Q 1072 3584 1716 3584 
Q 2034 3584 2315 3537 
Q 2597 3491 2834 3397 
z
" transform="scale(0.015625)"/>
       <path id="DejaVuSans-62" d="M 3116 1747 
Q 3116 2381 2855 2742 
Q 2594 3103 2138 3103 
Q 1681 3103 1420 2742 
Q 1159 2381 1159 1747 
Q 1159 1113 1420 752 
Q 1681 391 2138 391 
Q 2594 391 2855 752 
Q 3116 1113 3116 1747 
z
M 1159 2969 
Q 1341 3281 1617 3432 
Q 1894 3584 2278 3584 
Q 2916 3584 3314 3078 
Q 3713 2572 3713 1747 
Q 3713 922 3314 415 
Q 2916 -91 2278 -91 
Q 1894 -91 1617 61 
Q 1341 213 1159 525 
L 1159 0 
L 581 0 
L 581 4863 
L 1159 4863 
L 1159 2969 
z
" transform="scale(0.015625)"/>
       <path id="DejaVuSans-65" d="M 3597 1894 
L 3597 1613 
L 953 1613 
Q 991 1019 1311 708 
Q 1631 397 2203 397 
Q 2534 397 2845 478 
Q 3156 559 3463 722 
L 3463 178 
Q 3153 47 2828 -22 
Q 2503 -91 2169 -91 
Q 1331 -91 842 396 
Q 353 884 353 1716 
Q 353 2575 817 3079 
Q 1281 3584 2069 3584 
Q 2775 3584 3186 3129 
Q 3597 2675 3597 1894 
z
M 3022 2063 
Q 3016 2534 2758 2815 
Q 2500 3097 2075 3097 
Q 1594 3097 1305 2825 
Q 1016 2553 972 2059 
L 3022 2063 
z
" transform="scale(0.015625)"/>
       <path id="DejaVuSans-66" d="M 2375 4863 
L 2375 4384 
L 1825 4384 
Q 1516 4384 1395 4259 
Q 1275 4134 1275 3809 
L 1275 3500 
L 2222 3500 
L 2222 3053 
L 1275 3053 
L 1275 0 
L 697 0 
L 697 3053 
L 147 3053 
L 147 3500 
L 697 3500 
L 697 3744 
Q 697 4328 969 4595 
Q 1241 4863 1831 4863 
L 2375 4863 
z
" transform="scale(0.015625)"/>
       <path id="DejaVuSans-76" d="M 191 3500 
L 800 3500 
L 1894 563 
L 2988 3500 
L 3597 3500 
L 2284 0 
L 1503 0 
L 191 3500 
z
" transform="scale(0.015625)"/>
       <path id="DejaVuSans-61" d="M 2194 1759 
Q 1497 1759 1228 1600 
Q 959 1441 959 1056 
Q 959 750 1161 570 
Q 1363 391 1709 391 
Q 2188 391 2477 730 
Q 2766 1069 2766 1631 
L 2766 1759 
L 2194 1759 
z
M 3341 1997 
L 3341 0 
L 2766 0 
L 2766 531 
Q 2569 213 2275 61 
Q 1981 -91 1556 -91 
Q 1019 -91 701 211 
Q 384 513 384 1019 
Q 384 1609 779 1909 
Q 1175 2209 1959 2209 
L 2766 2209 
L 2766 2266 
Q 2766 2663 2505 2880 
Q 2244 3097 1772 3097 
Q 1472 3097 1187 3025 
Q 903 2953 641 2809 
L 641 3341 
Q 956 3463 1253 3523 
Q 1550 3584 1831 3584 
Q 2591 3584 2966 3190 
Q 3341 2797 3341 1997 
z
" transform="scale(0.015625)"/>
       <path id="DejaVuSans-70" d="M 1159 525 
L 1159 -1331 
L 581 -1331 
L 581 3500 
L 1159 3500 
L 1159 2969 
Q 1341 3281 1617 3432 
Q 1894 3584 2278 3584 
Q 2916 3584 3314 3078 
Q 3713 2572 3713 1747 
Q 3713 922 3314 415 
Q 2916 -91 2278 -91 
Q 1894 -91 1617 61 
Q 1341 213 1159 525 
z
M 3116 1747 
Q 3116 2381 2855 2742 
Q 2594 3103 2138 3103 
Q 1681 3103 1420 2742 
Q 1159 2381 1159 1747 
Q 1159 1113 1420 752 
Q 1681 391 2138 391 
Q 2594 391 2855 752 
Q 3116 1113 3116 1747 
z
" transform="scale(0.015625)"/>
       <path id="DejaVuSans-69" d="M 603 3500 
L 1178 3500 
L 1178 0 
L 603 0 
L 603 3500 
z
M 603 4863 
L 1178 4863 
L 1178 4134 
L 603 4134 
L 603 4863 
z
" transform="scale(0.015625)"/>
       <path id="DejaVuSans-6e" d="M 3513 2113 
L 3513 0 
L 2938 0 
L 2938 2094 
Q 2938 2591 2744 2837 
Q 2550 3084 2163 3084 
Q 1697 3084 1428 2787 
Q 1159 2491 1159 1978 
L 1159 0 
L 581 0 
L 581 3500 
L 1159 3500 
L 1159 2956 
Q 1366 3272 1645 3428 
Q 1925 3584 2291 3584 
Q 2894 3584 3203 3211 
Q 3513 2838 3513 2113 
z
" transform="scale(0.015625)"/>
       <path id="DejaVuSans-74" d="M 1172 4494 
L 1172 3500 
L 2356 3500 
L 2356 3053 
L 1172 3053 
L 1172 1153 
Q 1172 725 1289 603 
Q 1406 481 1766 481 
L 2356 481 
L 2356 0 
L 1766 0 
Q 1100 0 847 248 
Q 594 497 594 1153 
L 594 3053 
L 172 3053 
L 172 3500 
L 594 3500 
L 594 4494 
L 1172 4494 
z
" transform="scale(0.015625)"/>
       <path id="DejaVuSans-28" d="M 1984 4856 
Q 1566 4138 1362 3434 
Q 1159 2731 1159 2009 
Q 1159 1288 1364 580 
Q 1569 -128 1984 -844 
L 1484 -844 
Q 1016 -109 783 600 
Q 550 1309 550 2009 
Q 550 2706 781 3412 
Q 1013 4119 1484 4856 
L 1984 4856 
z
" transform="scale(0.015625)"/>
       <path id="DejaVuSans-29" d="M 513 4856 
L 1013 4856 
Q 1481 4119 1714 3412 
Q 1947 2706 1947 2009 
Q 1947 1309 1714 600 
Q 1481 -109 1013 -844 
L 513 -844 
Q 928 -128 1133 580 
Q 1338 1288 1338 2009 
Q 1338 2731 1133 3434 
Q 928 4138 513 4856 
z
" transform="scale(0.015625)"/>
      </defs>
      <use xlink:href="#DejaVuSans-48" transform="translate(0 0.015625)"/>
      <use xlink:href="#DejaVuSans-6f" transform="translate(75.195312 0.015625)"/>
      <use xlink:href="#DejaVuSans-75" transform="translate(136.376953 0.015625)"/>
      <use xlink:href="#DejaVuSans-72" transform="translate(199.755859 0.015625)"/>
      <use xlink:href="#DejaVuSans-73" transform="translate(240.869141 0.015625)"/>
      <use xlink:href="#DejaVuSans-20" transform="translate(292.96875 0.015625)"/>
      <use xlink:href="#DejaVuSans-62" transform="translate(324.755859 0.015625)"/>
      <use xlink:href="#DejaVuSans-65" transform="translate(388.232422 0.015625)"/>
      <use xlink:href="#DejaVuSans-66" transform="translate(449.755859 0.015625)"/>
      <use xlink:href="#DejaVuSans-6f" transform="translate(484.960938 0.015625)"/>
      <use xlink:href="#DejaVuSans-72" transform="translate(546.142578 0.015625)"/>
      <use xlink:href="#DejaVuSans-65" transform="translate(587.255859 0.015625)"/>
      <use xlink:href="#DejaVuSans-20" transform="translate(648.779297 0.015625)"/>
      <use xlink:href="#DejaVuSans-76" transform="translate(680.566406 0.015625)"/>
      <use xlink:href="#DejaVuSans-61" transform="translate(739.746094 0.015625)"/>
      <use xlink:href="#DejaVuSans-73" transform="translate(801.025391 0.015625)"/>
      <use xlink:href="#DejaVuSans-6f" transform="translate(853.125 0.015625)"/>
      <use xlink:href="#DejaVuSans-70" transform="translate(914.306641 0.015625)"/>
      <use xlink:href="#DejaVuSans-72" transform="translate(977.783203 0.015625)"/>
      <use xlink:href="#DejaVuSans-65" transform="translate(1018.896484 0.015625)"/>
      <use xlink:href="#DejaVuSans-73" transform="translate(1080.419922 0.015625)"/>
      <use xlink:href="#DejaVuSans-73" transform="translate(1132.519531 0.015625)"/>
      <use xlink:href="#DejaVuSans-6f" transform="translate(1184.619141 0.015625)"/>
      <use xlink:href="#DejaVuSans-72" transform="translate(1245.800781 0.015625)"/>
      <use xlink:href="#DejaVuSans-20" transform="translate(1286.914062 0.015625)"/>
      <use xlink:href="#DejaVuSans-69" transform="translate(1318.701172 0.015625)"/>
      <use xlink:href="#DejaVuSans-6e" transform="translate(1346.484375 0.015625)"/>
      <use xlink:href="#DejaVuSans-69" transform="translate(1409.863281 0.015625)"/>
      <use xlink:href="#DejaVuSans-74" transform="translate(1437.646484 0.015625)"/>
      <use xlink:href="#DejaVuSans-69" transform="translate(1476.855469 0.015625)"/>
      <use xlink:href="#DejaVuSans-61" transform="translate(1504.638672 0.015625)"/>
      <use xlink:href="#DejaVuSans-74" transform="translate(1565.917969 0.015625)"/>
      <use xlink:href="#DejaVuSans-69" transform="translate(1605.126953 0.015625)"/>
      <use xlink:href="#DejaVuSans-6f" transform="translate(1632.910156 0.015625)"/>
      <use xlink:href="#DejaVuSans-6e" transform="translate(1694.091797 0.015625)"/>
      <use xlink:href="#DejaVuSans-20" transform="translate(1757.470703 0.015625)"/>
      <use xlink:href="#DejaVuSans-28" transform="translate(1789.257812 0.015625)"/>
      <use xlink:href="#DejaVuSans-Oblique-54" transform="translate(1828.271484 0.015625)"/>
      <use xlink:href="#DejaVuSans-30" transform="translate(1889.355469 -16.390625) scale(0.7)"/>
      <use xlink:href="#DejaVuSans-29" transform="translate(1936.625977 0.015625)"/>
     </g>
    </g>
   </g>
   <g id="matplotlib.axis_2">
    <g id="ytick_1">
     <g id="line2d_6">
      <defs>
       <path id="m184d30efef" d="M 0 0 
L -3 0 
" style="stroke: #000000; stroke-width: 0.8"/>
      </defs>
      <g>
       <use xlink:href="#m184d30efef" x="45.336094" y="189.932597" style="stroke: #000000; stroke-width: 0.8"/>
      </g>
     </g>
     <g id="text_7">
      <!-- 0.30 -->
      <g transform="translate(19.910313 193.161933) scale(0.085 -0.085)">
       <defs>
        <path id="DejaVuSans-2e" d="M 684 794 
L 1344 794 
L 1344 0 
L 684 0 
L 684 794 
z
" transform="scale(0.015625)"/>
       </defs>
       <use xlink:href="#DejaVuSans-30"/>
       <use xlink:href="#DejaVuSans-2e" transform="translate(63.623047 0)"/>
       <use xlink:href="#DejaVuSans-33" transform="translate(95.410156 0)"/>
       <use xlink:href="#DejaVuSans-30" transform="translate(159.033203 0)"/>
      </g>
     </g>
    </g>
    <g id="ytick_2">
     <g id="line2d_7">
      <g>
       <use xlink:href="#m184d30efef" x="45.336094" y="165.694683" style="stroke: #000000; stroke-width: 0.8"/>
      </g>
     </g>
     <g id="text_8">
      <!-- 0.32 -->
      <g transform="translate(19.910313 168.924019) scale(0.085 -0.085)">
       <use xlink:href="#DejaVuSans-30"/>
       <use xlink:href="#DejaVuSans-2e" transform="translate(63.623047 0)"/>
       <use xlink:href="#DejaVuSans-33" transform="translate(95.410156 0)"/>
       <use xlink:href="#DejaVuSans-32" transform="translate(159.033203 0)"/>
      </g>
     </g>
    </g>
    <g id="ytick_3">
     <g id="line2d_8">
      <g>
       <use xlink:href="#m184d30efef" x="45.336094" y="141.456768" style="stroke: #000000; stroke-width: 0.8"/>
      </g>
     </g>
     <g id="text_9">
      <!-- 0.34 -->
      <g transform="translate(19.910313 144.686104) scale(0.085 -0.085)">
       <use xlink:href="#DejaVuSans-30"/>
       <use xlink:href="#DejaVuSans-2e" transform="translate(63.623047 0)"/>
       <use xlink:href="#DejaVuSans-33" transform="translate(95.410156 0)"/>
       <use xlink:href="#DejaVuSans-34" transform="translate(159.033203 0)"/>
      </g>
     </g>
    </g>
    <g id="ytick_4">
     <g id="line2d_9">
      <g>
       <use xlink:href="#m184d30efef" x="45.336094" y="117.218854" style="stroke: #000000; stroke-width: 0.8"/>
      </g>
     </g>
     <g id="text_10">
      <!-- 0.36 -->
      <g transform="translate(19.910313 120.44819) scale(0.085 -0.085)">
       <use xlink:href="#DejaVuSans-30"/>
       <use xlink:href="#DejaVuSans-2e" transform="translate(63.623047 0)"/>
       <use xlink:href="#DejaVuSans-33" transform="translate(95.410156 0)"/>
       <use xlink:href="#DejaVuSans-36" transform="translate(159.033203 0)"/>
      </g>
     </g>
    </g>
    <g id="ytick_5">
     <g id="line2d_10">
      <g>
       <use xlink:href="#m184d30efef" x="45.336094" y="92.980939" style="stroke: #000000; stroke-width: 0.8"/>
      </g>
     </g>
     <g id="text_11">
      <!-- 0.38 -->
      <g transform="translate(19.910313 96.210275) scale(0.085 -0.085)">
       <use xlink:href="#DejaVuSans-30"/>
       <use xlink:href="#DejaVuSans-2e" transform="translate(63.623047 0)"/>
       <use xlink:href="#DejaVuSans-33" transform="translate(95.410156 0)"/>
       <use xlink:href="#DejaVuSans-38" transform="translate(159.033203 0)"/>
      </g>
     </g>
    </g>
    <g id="ytick_6">
     <g id="line2d_11">
      <g>
       <use xlink:href="#m184d30efef" x="45.336094" y="68.743025" style="stroke: #000000; stroke-width: 0.8"/>
      </g>
     </g>
     <g id="text_12">
      <!-- 0.40 -->
      <g transform="translate(19.910313 71.972361) scale(0.085 -0.085)">
       <use xlink:href="#DejaVuSans-30"/>
       <use xlink:href="#DejaVuSans-2e" transform="translate(63.623047 0)"/>
       <use xlink:href="#DejaVuSans-34" transform="translate(95.410156 0)"/>
       <use xlink:href="#DejaVuSans-30" transform="translate(159.033203 0)"/>
      </g>
     </g>
    </g>
    <g id="ytick_7">
     <g id="line2d_12">
      <g>
       <use xlink:href="#m184d30efef" x="45.336094" y="44.50511" style="stroke: #000000; stroke-width: 0.8"/>
      </g>
     </g>
     <g id="text_13">
      <!-- 0.42 -->
      <g transform="translate(19.910313 47.734446) scale(0.085 -0.085)">
       <use xlink:href="#DejaVuSans-30"/>
       <use xlink:href="#DejaVuSans-2e" transform="translate(63.623047 0)"/>
       <use xlink:href="#DejaVuSans-34" transform="translate(95.410156 0)"/>
       <use xlink:href="#DejaVuSans-32" transform="translate(159.033203 0)"/>
      </g>
     </g>
    </g>
    <g id="ytick_8">
     <g id="line2d_13">
      <g>
       <use xlink:href="#m184d30efef" x="45.336094" y="20.267196" style="stroke: #000000; stroke-width: 0.8"/>
      </g>
     </g>
     <g id="text_14">
      <!-- 0.44 -->
      <g transform="translate(19.910313 23.496532) scale(0.085 -0.085)">
       <use xlink:href="#DejaVuSans-30"/>
       <use xlink:href="#DejaVuSans-2e" transform="translate(63.623047 0)"/>
       <use xlink:href="#DejaVuSans-34" transform="translate(95.410156 0)"/>
       <use xlink:href="#DejaVuSans-34" transform="translate(159.033203 0)"/>
      </g>
     </g>
    </g>
    <g id="text_15">
     <!-- HR Lag-1 Autocorrelation (AC1) -->
     <g transform="translate(14.038594 170.111812) rotate(-90) scale(0.09 -0.09)">
      <defs>
       <path id="DejaVuSans-52" d="M 2841 2188 
Q 3044 2119 3236 1894 
Q 3428 1669 3622 1275 
L 4263 0 
L 3584 0 
L 2988 1197 
Q 2756 1666 2539 1819 
Q 2322 1972 1947 1972 
L 1259 1972 
L 1259 0 
L 628 0 
L 628 4666 
L 2053 4666 
Q 2853 4666 3247 4331 
Q 3641 3997 3641 3322 
Q 3641 2881 3436 2590 
Q 3231 2300 2841 2188 
z
M 1259 4147 
L 1259 2491 
L 2053 2491 
Q 2509 2491 2742 2702 
Q 2975 2913 2975 3322 
Q 2975 3731 2742 3939 
Q 2509 4147 2053 4147 
L 1259 4147 
z
" transform="scale(0.015625)"/>
       <path id="DejaVuSans-4c" d="M 628 4666 
L 1259 4666 
L 1259 531 
L 3531 531 
L 3531 0 
L 628 0 
L 628 4666 
z
" transform="scale(0.015625)"/>
       <path id="DejaVuSans-67" d="M 2906 1791 
Q 2906 2416 2648 2759 
Q 2391 3103 1925 3103 
Q 1463 3103 1205 2759 
Q 947 2416 947 1791 
Q 947 1169 1205 825 
Q 1463 481 1925 481 
Q 2391 481 2648 825 
Q 2906 1169 2906 1791 
z
M 3481 434 
Q 3481 -459 3084 -895 
Q 2688 -1331 1869 -1331 
Q 1566 -1331 1297 -1286 
Q 1028 -1241 775 -1147 
L 775 -588 
Q 1028 -725 1275 -790 
Q 1522 -856 1778 -856 
Q 2344 -856 2625 -561 
Q 2906 -266 2906 331 
L 2906 616 
Q 2728 306 2450 153 
Q 2172 0 1784 0 
Q 1141 0 747 490 
Q 353 981 353 1791 
Q 353 2603 747 3093 
Q 1141 3584 1784 3584 
Q 2172 3584 2450 3431 
Q 2728 3278 2906 2969 
L 2906 3500 
L 3481 3500 
L 3481 434 
z
" transform="scale(0.015625)"/>
       <path id="DejaVuSans-41" d="M 2188 4044 
L 1331 1722 
L 3047 1722 
L 2188 4044 
z
M 1831 4666 
L 2547 4666 
L 4325 0 
L 3669 0 
L 3244 1197 
L 1141 1197 
L 716 0 
L 50 0 
L 1831 4666 
z
" transform="scale(0.015625)"/>
       <path id="DejaVuSans-63" d="M 3122 3366 
L 3122 2828 
Q 2878 2963 2633 3030 
Q 2388 3097 2138 3097 
Q 1578 3097 1268 2742 
Q 959 2388 959 1747 
Q 959 1106 1268 751 
Q 1578 397 2138 397 
Q 2388 397 2633 464 
Q 2878 531 3122 666 
L 3122 134 
Q 2881 22 2623 -34 
Q 2366 -91 2075 -91 
Q 1284 -91 818 406 
Q 353 903 353 1747 
Q 353 2603 823 3093 
Q 1294 3584 2113 3584 
Q 2378 3584 2631 3529 
Q 2884 3475 3122 3366 
z
" transform="scale(0.015625)"/>
       <path id="DejaVuSans-6c" d="M 603 4863 
L 1178 4863 
L 1178 0 
L 603 0 
L 603 4863 
z
" transform="scale(0.015625)"/>
       <path id="DejaVuSans-43" d="M 4122 4306 
L 4122 3641 
Q 3803 3938 3442 4084 
Q 3081 4231 2675 4231 
Q 1875 4231 1450 3742 
Q 1025 3253 1025 2328 
Q 1025 1406 1450 917 
Q 1875 428 2675 428 
Q 3081 428 3442 575 
Q 3803 722 4122 1019 
L 4122 359 
Q 3791 134 3420 21 
Q 3050 -91 2638 -91 
Q 1578 -91 968 557 
Q 359 1206 359 2328 
Q 359 3453 968 4101 
Q 1578 4750 2638 4750 
Q 3056 4750 3426 4639 
Q 3797 4528 4122 4306 
z
" transform="scale(0.015625)"/>
      </defs>
      <use xlink:href="#DejaVuSans-48"/>
      <use xlink:href="#DejaVuSans-52" transform="translate(75.195312 0)"/>
      <use xlink:href="#DejaVuSans-20" transform="translate(144.677734 0)"/>
      <use xlink:href="#DejaVuSans-4c" transform="translate(176.464844 0)"/>
      <use xlink:href="#DejaVuSans-61" transform="translate(232.177734 0)"/>
      <use xlink:href="#DejaVuSans-67" transform="translate(293.457031 0)"/>
      <use xlink:href="#DejaVuSans-2d" transform="translate(356.933594 0)"/>
      <use xlink:href="#DejaVuSans-31" transform="translate(393.017578 0)"/>
      <use xlink:href="#DejaVuSans-20" transform="translate(456.640625 0)"/>
      <use xlink:href="#DejaVuSans-41" transform="translate(488.427734 0)"/>
      <use xlink:href="#DejaVuSans-75" transform="translate(556.835938 0)"/>
      <use xlink:href="#DejaVuSans-74" transform="translate(620.214844 0)"/>
      <use xlink:href="#DejaVuSans-6f" transform="translate(659.423828 0)"/>
      <use xlink:href="#DejaVuSans-63" transform="translate(720.605469 0)"/>
      <use xlink:href="#DejaVuSans-6f" transform="translate(775.585938 0)"/>
      <use xlink:href="#DejaVuSans-72" transform="translate(836.767578 0)"/>
      <use xlink:href="#DejaVuSans-72" transform="translate(876.130859 0)"/>
      <use xlink:href="#DejaVuSans-65" transform="translate(914.994141 0)"/>
      <use xlink:href="#DejaVuSans-6c" transform="translate(976.517578 0)"/>
      <use xlink:href="#DejaVuSans-61" transform="translate(1004.300781 0)"/>
      <use xlink:href="#DejaVuSans-74" transform="translate(1065.580078 0)"/>
      <use xlink:href="#DejaVuSans-69" transform="translate(1104.789062 0)"/>
      <use xlink:href="#DejaVuSans-6f" transform="translate(1132.572266 0)"/>
      <use xlink:href="#DejaVuSans-6e" transform="translate(1193.753906 0)"/>
      <use xlink:href="#DejaVuSans-20" transform="translate(1257.132812 0)"/>
      <use xlink:href="#DejaVuSans-28" transform="translate(1288.919922 0)"/>
      <use xlink:href="#DejaVuSans-41" transform="translate(1327.933594 0)"/>
      <use xlink:href="#DejaVuSans-43" transform="translate(1394.591797 0)"/>
      <use xlink:href="#DejaVuSans-31" transform="translate(1464.416016 0)"/>
      <use xlink:href="#DejaVuSans-29" transform="translate(1528.039062 0)"/>
     </g>
    </g>
   </g>
   <g id="line2d_14">
    <path d="M 372.968176 191.988 
L 372.968176 7.2 
" clip-path="url(#pf3681e471f)" style="fill: none; stroke-dasharray: 3.7,1.6; stroke-dashoffset: 0; stroke: #888888"/>
   </g>
   <g id="line2d_15">
    <path d="M 482.17887 191.988 
L 482.17887 7.2 
" clip-path="url(#pf3681e471f)" style="fill: none; stroke: #d62728; stroke-opacity: 0.4; stroke-width: 1.2; stroke-linecap: square"/>
   </g>
   <g id="patch_5">
    <path d="M 45.336094 191.988 
L 45.336094 7.2 
" style="fill: none; stroke: #000000; stroke-width: 0.8; stroke-linejoin: miter; stroke-linecap: square"/>
   </g>
   <g id="patch_6">
    <path d="M 45.336094 191.988 
L 495.830207 191.988 
" style="fill: none; stroke: #000000; stroke-width: 0.8; stroke-linejoin: miter; stroke-linecap: square"/>
   </g>
   <g id="line2d_16">
    <path d="M 99.941441 139.333879 
L 100.85153 135.329447 
L 101.761619 133.638995 
L 102.671708 135.08593 
L 103.581797 139.449322 
L 105.401975 152.716824 
L 106.312065 157.543837 
L 107.222154 158.551778 
L 108.132243 155.205413 
L 109.042332 148.152478 
L 109.952421 139.946005 
L 110.86251 133.05805 
L 111.772599 129.814579 
L 112.682688 130.641573 
L 113.592778 134.742738 
L 114.502867 140.073762 
L 115.412956 144.101222 
L 116.323045 144.950461 
L 117.233134 142.021408 
L 118.143223 135.8929 
L 119.053312 128.526839 
L 119.963401 122.192331 
L 120.87349 118.961924 
L 121.78358 119.481097 
L 122.693669 123.238735 
L 123.603758 128.786988 
L 124.513847 133.592833 
L 125.423936 135.704558 
L 126.334025 134.32364 
L 127.244114 129.643967 
L 128.154203 123.647197 
L 129.064293 118.51961 
L 129.974382 116.689064 
L 130.884471 118.712886 
L 131.79456 124.615388 
L 133.614738 141.367116 
L 134.524827 147.52026 
L 135.434916 150.028117 
L 136.345005 148.495918 
L 137.255095 144.010057 
L 138.165184 138.518095 
L 139.075273 134.417072 
L 139.985362 132.506917 
L 140.895451 133.716504 
L 141.80554 137.477996 
L 142.715629 141.863216 
L 143.625718 145.337523 
L 144.535808 146.276208 
L 145.445897 144.108769 
L 146.355986 139.194835 
L 147.266075 133.219381 
L 148.176164 128.30279 
L 149.086253 125.624994 
L 149.996342 126.556207 
L 150.906431 131.16173 
L 153.636699 150.563899 
L 154.546788 152.895576 
L 155.456877 151.423287 
L 156.366966 147.074158 
L 158.187144 136.609225 
L 159.097233 134.216699 
L 160.007323 135.631234 
L 160.917412 140.26102 
L 162.73759 154.114355 
L 163.647679 159.379723 
L 164.557768 161.403997 
L 165.467857 160.300862 
L 166.377946 156.986381 
L 167.288035 152.785165 
L 168.198125 149.828381 
L 169.108214 149.884749 
L 170.018303 152.938529 
L 170.928392 158.528042 
L 171.838481 165.154936 
L 172.74857 170.677095 
L 173.658659 173.278336 
L 174.568748 172.489319 
L 175.478838 168.795916 
L 177.299016 157.781531 
L 178.209105 154.539393 
L 179.119194 153.728644 
L 180.029283 155.227487 
L 181.849461 160.666599 
L 182.75955 161.776952 
L 183.66964 160.976914 
L 184.579729 158.430712 
L 186.399907 150.875893 
L 187.309996 148.73993 
L 188.220085 148.513614 
L 189.130174 150.310508 
L 190.950353 156.210873 
L 191.860442 157.727707 
L 192.770531 157.293304 
L 193.68062 154.801167 
L 194.590709 150.603241 
L 195.500798 145.838323 
L 196.410887 141.878623 
L 197.320976 138.729015 
L 198.231065 136.838736 
L 199.141155 135.766074 
L 200.051244 134.978481 
L 200.961333 133.780664 
L 201.871422 131.981317 
L 202.781511 129.670833 
L 204.601689 124.231365 
L 205.511778 122.315871 
L 206.421868 120.818857 
L 207.331957 120.004574 
L 208.242046 119.693016 
L 210.062224 119.905589 
L 211.882402 120.407388 
L 213.70258 120.313471 
L 214.61267 120.101494 
L 215.522759 119.186132 
L 216.432848 117.726097 
L 218.253026 114.043777 
L 219.163115 112.596886 
L 220.073204 112.111539 
L 220.983293 112.798496 
L 221.893383 114.188206 
L 223.713561 118.095813 
L 224.62365 119.122888 
L 225.533739 119.061151 
L 226.443828 118.111312 
L 228.264006 115.075059 
L 229.174095 114.255851 
L 230.084185 114.447454 
L 230.994274 115.644993 
L 231.904363 117.835492 
L 233.724541 122.736138 
L 234.63463 124.222865 
L 235.544719 124.465378 
L 236.454808 123.221385 
L 237.364898 120.689463 
L 239.185076 115.035954 
L 240.095165 113.541353 
L 241.005254 113.781921 
L 241.915343 115.556842 
L 243.735521 120.155854 
L 244.64561 121.266974 
L 245.5557 120.659981 
L 246.465789 118.613322 
L 247.375878 115.867895 
L 248.285967 113.641193 
L 249.196056 113.169111 
L 250.106145 115.0664 
L 251.016234 119.097822 
L 252.836413 128.305057 
L 253.746502 130.536301 
L 254.656591 129.754321 
L 255.56668 126.23691 
L 257.386858 115.23453 
L 258.296947 111.401743 
L 259.207036 110.618534 
L 260.117125 113.277909 
L 261.027215 118.365464 
L 261.937304 124.562704 
L 262.847393 129.562155 
L 263.757482 131.827412 
L 264.667571 130.545795 
L 265.57766 125.879848 
L 267.397838 113.549623 
L 268.307928 109.793418 
L 269.218017 109.462937 
L 270.128106 112.277805 
L 271.948284 122.482613 
L 272.858373 126.318487 
L 273.768462 127.595781 
L 274.678551 125.93591 
L 275.58864 122.363651 
L 276.49873 118.174408 
L 277.408819 115.224061 
L 278.318908 114.676341 
L 279.228997 116.875915 
L 281.049175 125.603016 
L 281.959264 128.59398 
L 282.869353 128.389253 
L 283.779443 124.572273 
L 284.689532 118.227658 
L 285.599621 111.047443 
L 286.50971 105.420005 
L 287.419799 102.820607 
L 288.329888 103.677522 
L 289.239977 107.164845 
L 290.150066 111.377531 
L 291.060155 114.320157 
L 291.970245 114.266435 
L 292.880334 110.743818 
L 293.790423 104.648918 
L 294.700512 97.675853 
L 295.610601 92.032691 
L 296.52069 89.346653 
L 297.430779 90.1763 
L 298.340868 93.785094 
L 299.250957 98.63419 
L 300.161047 102.718052 
L 301.071136 104.445663 
L 301.981225 103.556861 
L 302.891314 100.77264 
L 303.801403 97.448201 
L 304.711492 95.52949 
L 305.621581 96.010707 
L 306.53167 98.999609 
L 308.351849 108.578569 
L 309.261938 111.853601 
L 310.172027 112.229953 
L 311.082116 109.482663 
L 312.902294 99.251984 
L 313.812383 95.835779 
L 314.722472 95.721398 
L 315.632562 99.076987 
L 316.542651 105.200909 
L 317.45274 112.086013 
L 318.362829 117.517824 
L 319.272918 119.854675 
L 320.183007 118.478298 
L 321.093096 114.212355 
L 322.003185 108.889853 
L 322.913275 105.067213 
L 323.823364 104.311815 
L 324.733453 107.049324 
L 326.553631 118.47365 
L 327.46372 122.633898 
L 328.373809 123.115766 
L 329.283898 119.37295 
L 330.193987 112.534428 
L 331.104077 104.66288 
L 332.014166 98.72903 
L 332.924255 96.727146 
L 333.834344 99.298359 
L 334.744433 105.645761 
L 335.654522 113.582665 
L 336.564611 120.417176 
L 337.4747 123.639643 
L 338.38479 122.484112 
L 339.294879 117.940163 
L 340.204968 111.839913 
L 341.115057 106.984229 
L 342.025146 105.203108 
L 342.935235 106.914487 
L 344.755413 115.247392 
L 345.665502 117.601128 
L 346.575592 116.16689 
L 347.485681 111.150499 
L 349.305859 96.27023 
L 350.215948 90.996671 
L 351.126037 89.378082 
L 352.036126 91.199156 
L 353.856305 99.394493 
L 354.766394 101.662663 
L 355.676483 100.619664 
L 356.586572 96.785953 
L 358.40675 86.637989 
L 359.316839 84.039933 
L 360.226928 84.536421 
L 361.137017 87.326544 
L 362.957196 94.496741 
L 363.867285 96.233779 
L 364.777374 95.991887 
L 365.687463 94.593926 
L 366.597552 93.468574 
L 367.507641 93.657796 
L 368.41773 96.027465 
L 370.237909 105.061506 
L 371.147998 108.276907 
L 372.058087 108.675272 
L 372.968176 105.446081 
L 373.878265 99.090308 
L 374.788354 91.573858 
L 375.698443 85.485406 
L 376.608532 82.56768 
L 377.518622 84.011748 
L 378.428711 89.153758 
L 379.3388 95.901627 
L 380.248889 101.793438 
L 381.158978 104.755214 
L 382.069067 103.933847 
L 382.979156 99.428054 
L 384.799335 87.25527 
L 385.709424 83.532951 
L 386.619513 83.048723 
L 387.529602 85.527047 
L 388.439691 89.248907 
L 389.34978 92.258865 
L 390.259869 92.591998 
L 391.169958 89.308072 
L 392.080047 82.608458 
L 392.990137 74.350654 
L 393.900226 67.368048 
L 394.810315 63.813635 
L 395.720404 64.813662 
L 396.630493 69.853656 
L 397.540582 76.520666 
L 398.450671 82.246979 
L 399.36076 84.709057 
L 400.27085 83.042549 
L 401.180939 77.559775 
L 403.001117 63.470405 
L 403.911206 59.230826 
L 404.821295 58.397519 
L 405.731384 60.294211 
L 406.641473 63.125424 
L 407.551562 64.874789 
L 408.461652 64.362386 
L 409.371741 61.496318 
L 410.28183 57.145642 
L 411.191919 53.433164 
L 412.102008 51.804 
L 413.012097 52.935341 
L 413.922186 56.358899 
L 414.832275 60.302876 
L 415.742365 63.096415 
L 416.652454 63.396421 
L 417.562543 61.668352 
L 418.472632 59.029146 
L 419.382721 57.082891 
L 420.29281 57.640543 
L 421.202899 61.164472 
L 423.933167 78.813302 
L 424.843256 81.022507 
L 425.753345 79.853027 
L 426.663434 76.24444 
L 427.573523 71.700355 
L 428.483612 68.037332 
L 429.393701 66.800438 
L 430.30379 68.575287 
L 431.21388 72.707844 
L 433.034058 82.311171 
L 433.944147 84.96116 
L 434.854236 85.382557 
L 435.764325 83.68932 
L 436.674414 80.00851 
L 436.674414 80.00851 
" clip-path="url(#pf3681e471f)" style="fill: none; stroke: #d62728; stroke-width: 2.2; stroke-linecap: round"/>
   </g>
   <g id="line2d_17">
    <path d="M 99.941441 176.767821 
L 101.761619 173.390645 
L 103.581797 170.611381 
L 105.401975 168.434114 
L 108.132243 165.570346 
L 109.042332 165.208865 
L 109.952421 165.219026 
L 111.772599 166.234411 
L 112.682688 166.360536 
L 113.592778 165.902935 
L 114.502867 164.824251 
L 116.323045 161.914369 
L 117.233134 161.249532 
L 118.143223 161.299392 
L 119.053312 161.850554 
L 120.87349 163.811927 
L 121.78358 164.277857 
L 122.693669 164.200744 
L 123.603758 163.619051 
L 125.423936 161.935916 
L 126.334025 161.819516 
L 127.244114 162.309211 
L 128.154203 163.365393 
L 130.884471 168.256983 
L 131.79456 169.494337 
L 132.704649 170.316986 
L 133.614738 170.583506 
L 134.524827 170.408897 
L 135.434916 170.005568 
L 136.345005 169.145651 
L 138.165184 166.867517 
L 139.075273 165.890054 
L 139.985362 165.249698 
L 140.895451 164.811425 
L 143.625718 164.195637 
L 144.535808 163.931223 
L 145.445897 163.398536 
L 149.086253 160.759455 
L 149.996342 160.423637 
L 150.906431 160.362033 
L 151.81652 160.462513 
L 152.72661 160.859821 
L 154.546788 162.229688 
L 155.456877 162.746031 
L 156.366966 163.036591 
L 157.277055 162.957449 
L 158.187144 162.42036 
L 160.917412 159.566122 
L 161.827501 159.018574 
L 162.73759 158.973367 
L 164.557768 159.64828 
L 166.377946 160.629828 
L 167.288035 160.929049 
L 168.198125 160.954375 
L 169.108214 160.730686 
L 170.928392 159.912289 
L 171.838481 159.804164 
L 172.74857 159.855745 
L 173.658659 160.130206 
L 175.478838 161.2921 
L 176.388927 161.870102 
L 177.299016 162.070269 
L 178.209105 161.790637 
L 179.119194 160.703152 
L 181.849461 156.080834 
L 182.75955 155.265615 
L 183.66964 155.44074 
L 184.579729 156.496974 
L 186.399907 159.741763 
L 187.309996 160.933578 
L 188.220085 161.106642 
L 189.130174 160.387353 
L 190.040263 158.88974 
L 191.860442 154.789372 
L 192.770531 153.086158 
L 193.68062 151.78374 
L 194.590709 150.764937 
L 197.320976 148.507016 
L 198.231065 148.055604 
L 199.141155 147.844177 
L 200.051244 147.814008 
L 201.871422 148.513751 
L 202.781511 148.644387 
L 203.6916 148.207814 
L 204.601689 147.151236 
L 206.421868 144.347405 
L 207.331957 144.005364 
L 208.242046 145.076117 
L 209.152135 147.480137 
L 210.972313 154.067857 
L 211.882402 156.194936 
L 212.792491 156.663035 
L 213.70258 155.616088 
L 215.522759 151.887573 
L 216.432848 151.424268 
L 217.342937 152.692518 
L 218.253026 155.470254 
L 220.073204 162.461485 
L 220.983293 164.464788 
L 221.893383 164.630447 
L 222.803472 163.295525 
L 224.62365 159.186604 
L 225.533739 158.453003 
L 226.443828 159.255955 
L 227.353917 161.234384 
L 228.264006 163.714717 
L 229.174095 165.708206 
L 230.084185 166.492843 
L 230.994274 165.952259 
L 231.904363 164.355991 
L 232.814452 162.376689 
L 233.724541 160.839283 
L 234.63463 160.575134 
L 235.544719 161.697291 
L 236.454808 163.780903 
L 237.364898 166.28882 
L 238.274987 168.22447 
L 239.185076 168.716039 
L 240.095165 167.60106 
L 241.005254 165.019548 
L 242.825432 158.118845 
L 243.735521 155.861836 
L 244.64561 155.214759 
L 245.5557 156.237333 
L 246.465789 158.670482 
L 247.375878 161.532047 
L 248.285967 163.838511 
L 249.196056 165.037967 
L 250.106145 164.854273 
L 251.016234 163.454417 
L 251.926323 161.502676 
L 252.836413 160.118426 
L 253.746502 159.641761 
L 254.656591 160.432669 
L 255.56668 162.468234 
L 257.386858 167.565095 
L 258.296947 169.331514 
L 259.207036 170.108191 
L 260.117125 169.697461 
L 261.027215 168.685683 
L 261.937304 167.8573 
L 262.847393 167.634716 
L 263.757482 168.512366 
L 264.667571 170.555191 
L 266.487749 176.103812 
L 267.397838 178.286085 
L 268.307928 179.244 
L 269.218017 178.517834 
L 270.128106 176.397051 
L 271.948284 170.671393 
L 272.858373 168.618975 
L 273.768462 168.036467 
L 274.678551 169.00921 
L 275.58864 170.979034 
L 276.49873 173.365319 
L 277.408819 175.22526 
L 278.318908 175.814001 
L 279.228997 175.031332 
L 280.139086 173.219995 
L 281.959264 168.428129 
L 282.869353 166.760904 
L 283.779443 165.922474 
L 284.689532 165.687988 
L 285.599621 165.703127 
L 286.50971 165.433977 
L 287.419799 164.408489 
L 290.150066 159.52315 
L 291.060155 158.896525 
L 291.970245 159.50754 
L 292.880334 160.927501 
L 293.790423 162.606473 
L 294.700512 163.908857 
L 295.610601 164.365396 
L 296.52069 163.833478 
L 297.430779 162.851903 
L 298.340868 162.075951 
L 299.250957 162.127438 
L 300.161047 163.245853 
L 301.071136 165.357415 
L 301.981225 167.770473 
L 302.891314 169.697896 
L 303.801403 170.42327 
L 304.711492 169.592189 
L 305.621581 167.164336 
L 307.44176 160.529324 
L 308.351849 158.060165 
L 309.261938 157.004445 
L 310.172027 157.538604 
L 311.992205 160.925277 
L 312.902294 162.120014 
L 313.812383 162.182482 
L 314.722472 160.884494 
L 316.542651 156.706211 
L 317.45274 155.463692 
L 318.362829 155.479068 
L 319.272918 156.779511 
L 321.093096 160.904649 
L 322.003185 162.429911 
L 322.913275 163.143178 
L 323.823364 163.084667 
L 324.733453 162.736401 
L 325.643542 162.779164 
L 326.553631 163.380288 
L 327.46372 164.659391 
L 329.283898 168.087766 
L 330.193987 168.767779 
L 331.104077 168.091925 
L 332.014166 165.903562 
L 334.744433 155.873567 
L 335.654522 154.518875 
L 336.564611 154.879699 
L 337.4747 156.669792 
L 338.38479 158.753195 
L 339.294879 160.352746 
L 340.204968 160.957459 
L 341.115057 160.494695 
L 342.935235 157.980095 
L 343.845324 157.333792 
L 344.755413 157.540411 
L 345.665502 158.688054 
L 347.485681 162.370157 
L 348.39577 163.837015 
L 349.305859 164.605127 
L 350.215948 164.532891 
L 351.126037 163.525589 
L 352.946215 160.811608 
L 353.856305 159.895616 
L 354.766394 159.714753 
L 357.496661 160.945994 
L 358.40675 160.907547 
L 359.316839 160.482332 
L 361.137017 158.666511 
L 362.957196 157.314191 
L 363.867285 156.741316 
L 364.777374 156.017448 
L 365.687463 154.913652 
L 367.507641 152.23637 
L 368.41773 151.26458 
L 369.32782 150.893481 
L 370.237909 151.514882 
L 371.147998 153.061361 
L 372.968176 157.313081 
L 373.878265 158.917177 
L 374.788354 159.547677 
L 375.698443 159.119944 
L 376.608532 158.078333 
L 377.518622 156.775602 
L 378.428711 155.817331 
L 379.3388 155.725898 
L 380.248889 156.7282 
L 381.158978 158.651753 
L 382.979156 163.225427 
L 383.889245 164.783928 
L 384.799335 165.144958 
L 385.709424 164.424079 
L 386.619513 162.684241 
L 388.439691 158.372093 
L 389.34978 157.042897 
L 390.259869 156.579966 
L 391.169958 156.95713 
L 392.990137 158.732908 
L 393.900226 159.179367 
L 394.810315 159.130959 
L 395.720404 158.548988 
L 396.630493 157.766156 
L 397.540582 157.137763 
L 398.450671 157.199978 
L 399.36076 157.919548 
L 400.27085 159.320466 
L 402.091028 162.984271 
L 403.001117 164.309531 
L 403.911206 164.874119 
L 404.821295 164.564986 
L 405.731384 163.454002 
L 406.641473 162.002705 
L 407.551562 160.939067 
L 408.461652 160.462636 
L 409.371741 160.846772 
L 410.28183 161.99467 
L 412.102008 164.727405 
L 413.012097 165.384012 
L 413.922186 165.160544 
L 414.832275 164.255738 
L 415.742365 163.128999 
L 416.652454 162.502031 
L 417.562543 162.692352 
L 418.472632 163.826732 
L 420.29281 167.049387 
L 421.202899 167.892601 
L 422.112988 167.641049 
L 423.023077 166.42861 
L 423.933167 164.792411 
L 424.843256 163.532453 
L 425.753345 163.15357 
L 426.663434 163.800229 
L 427.573523 165.360223 
L 429.393701 169.260703 
L 430.30379 170.58713 
L 431.21388 171.039234 
L 432.123969 170.716044 
L 433.034058 169.811951 
L 434.854236 167.551241 
L 435.764325 166.587036 
L 436.674414 165.838403 
L 436.674414 165.838403 
" clip-path="url(#pf3681e471f)" style="fill: none; stroke: #1f77b4; stroke-width: 2.2; stroke-linecap: round"/>
   </g>
   <g id="text_16">
    <!-- Early Window -->
    <g style="fill: #666666" transform="translate(180.313229 29.617269) scale(0.085 -0.085)">
     <defs>
      <path id="DejaVuSans-45" d="M 628 4666 
L 3578 4666 
L 3578 4134 
L 1259 4134 
L 1259 2753 
L 3481 2753 
L 3481 2222 
L 1259 2222 
L 1259 531 
L 3634 531 
L 3634 0 
L 628 0 
L 628 4666 
z
" transform="scale(0.015625)"/>
      <path id="DejaVuSans-79" d="M 2059 -325 
Q 1816 -950 1584 -1140 
Q 1353 -1331 966 -1331 
L 506 -1331 
L 506 -850 
L 844 -850 
Q 1081 -850 1212 -737 
Q 1344 -625 1503 -206 
L 1606 56 
L 191 3500 
L 800 3500 
L 1894 763 
L 2988 3500 
L 3597 3500 
L 2059 -325 
z
" transform="scale(0.015625)"/>
      <path id="DejaVuSans-57" d="M 213 4666 
L 850 4666 
L 1831 722 
L 2809 4666 
L 3519 4666 
L 4500 722 
L 5478 4666 
L 6119 4666 
L 4947 0 
L 4153 0 
L 3169 4050 
L 2175 0 
L 1381 0 
L 213 4666 
z
" transform="scale(0.015625)"/>
      <path id="DejaVuSans-64" d="M 2906 2969 
L 2906 4863 
L 3481 4863 
L 3481 0 
L 2906 0 
L 2906 525 
Q 2725 213 2448 61 
Q 2172 -91 1784 -91 
Q 1150 -91 751 415 
Q 353 922 353 1747 
Q 353 2572 751 3078 
Q 1150 3584 1784 3584 
Q 2172 3584 2448 3432 
Q 2725 3281 2906 2969 
z
M 947 1747 
Q 947 1113 1208 752 
Q 1469 391 1925 391 
Q 2381 391 2643 752 
Q 2906 1113 2906 1747 
Q 2906 2381 2643 2742 
Q 2381 3103 1925 3103 
Q 1469 3103 1208 2742 
Q 947 2381 947 1747 
z
" transform="scale(0.015625)"/>
      <path id="DejaVuSans-77" d="M 269 3500 
L 844 3500 
L 1563 769 
L 2278 3500 
L 2956 3500 
L 3675 769 
L 4391 3500 
L 4966 3500 
L 4050 0 
L 3372 0 
L 2619 2869 
L 1863 0 
L 1184 0 
L 269 3500 
z
" transform="scale(0.015625)"/>
     </defs>
     <use xlink:href="#DejaVuSans-45"/>
     <use xlink:href="#DejaVuSans-61" transform="translate(63.183594 0)"/>
     <use xlink:href="#DejaVuSans-72" transform="translate(124.462891 0)"/>
     <use xlink:href="#DejaVuSans-6c" transform="translate(165.576172 0)"/>
     <use xlink:href="#DejaVuSans-79" transform="translate(193.359375 0)"/>
     <use xlink:href="#DejaVuSans-20" transform="translate(252.539062 0)"/>
     <use xlink:href="#DejaVuSans-57" transform="translate(284.326172 0)"/>
     <use xlink:href="#DejaVuSans-69" transform="translate(380.953125 0)"/>
     <use xlink:href="#DejaVuSans-6e" transform="translate(408.736328 0)"/>
     <use xlink:href="#DejaVuSans-64" transform="translate(472.115234 0)"/>
     <use xlink:href="#DejaVuSans-6f" transform="translate(535.591797 0)"/>
     <use xlink:href="#DejaVuSans-77" transform="translate(596.773438 0)"/>
    </g>
   </g>
   <g id="text_17">
    <!-- Late Window -->
    <g style="fill: #c0392b" transform="translate(396.545203 29.617269) scale(0.085 -0.085)">
     <defs>
      <path id="DejaVuSans-Bold-4c" d="M 588 4666 
L 1791 4666 
L 1791 909 
L 3903 909 
L 3903 0 
L 588 0 
L 588 4666 
z
" transform="scale(0.015625)"/>
      <path id="DejaVuSans-Bold-61" d="M 2106 1575 
Q 1756 1575 1579 1456 
Q 1403 1338 1403 1106 
Q 1403 894 1545 773 
Q 1688 653 1941 653 
Q 2256 653 2472 879 
Q 2688 1106 2688 1447 
L 2688 1575 
L 2106 1575 
z
M 3816 1997 
L 3816 0 
L 2688 0 
L 2688 519 
Q 2463 200 2181 54 
Q 1900 -91 1497 -91 
Q 953 -91 614 226 
Q 275 544 275 1050 
Q 275 1666 698 1953 
Q 1122 2241 2028 2241 
L 2688 2241 
L 2688 2328 
Q 2688 2594 2478 2717 
Q 2269 2841 1825 2841 
Q 1466 2841 1156 2769 
Q 847 2697 581 2553 
L 581 3406 
Q 941 3494 1303 3539 
Q 1666 3584 2028 3584 
Q 2975 3584 3395 3211 
Q 3816 2838 3816 1997 
z
" transform="scale(0.015625)"/>
      <path id="DejaVuSans-Bold-74" d="M 1759 4494 
L 1759 3500 
L 2913 3500 
L 2913 2700 
L 1759 2700 
L 1759 1216 
Q 1759 972 1856 886 
Q 1953 800 2241 800 
L 2816 800 
L 2816 0 
L 1856 0 
Q 1194 0 917 276 
Q 641 553 641 1216 
L 641 2700 
L 84 2700 
L 84 3500 
L 641 3500 
L 641 4494 
L 1759 4494 
z
" transform="scale(0.015625)"/>
      <path id="DejaVuSans-Bold-65" d="M 4031 1759 
L 4031 1441 
L 1416 1441 
Q 1456 1047 1700 850 
Q 1944 653 2381 653 
Q 2734 653 3104 758 
Q 3475 863 3866 1075 
L 3866 213 
Q 3469 63 3072 -14 
Q 2675 -91 2278 -91 
Q 1328 -91 801 392 
Q 275 875 275 1747 
Q 275 2603 792 3093 
Q 1309 3584 2216 3584 
Q 3041 3584 3536 3087 
Q 4031 2591 4031 1759 
z
M 2881 2131 
Q 2881 2450 2695 2645 
Q 2509 2841 2209 2841 
Q 1884 2841 1681 2658 
Q 1478 2475 1428 2131 
L 2881 2131 
z
" transform="scale(0.015625)"/>
      <path id="DejaVuSans-Bold-20" transform="scale(0.015625)"/>
      <path id="DejaVuSans-Bold-57" d="M 191 4666 
L 1344 4666 
L 2150 1275 
L 2950 4666 
L 4109 4666 
L 4909 1275 
L 5716 4666 
L 6859 4666 
L 5759 0 
L 4372 0 
L 3525 3547 
L 2688 0 
L 1300 0 
L 191 4666 
z
" transform="scale(0.015625)"/>
      <path id="DejaVuSans-Bold-69" d="M 538 3500 
L 1656 3500 
L 1656 0 
L 538 0 
L 538 3500 
z
M 538 4863 
L 1656 4863 
L 1656 3950 
L 538 3950 
L 538 4863 
z
" transform="scale(0.015625)"/>
      <path id="DejaVuSans-Bold-6e" d="M 4056 2131 
L 4056 0 
L 2931 0 
L 2931 347 
L 2931 1631 
Q 2931 2084 2911 2256 
Q 2891 2428 2841 2509 
Q 2775 2619 2662 2680 
Q 2550 2741 2406 2741 
Q 2056 2741 1856 2470 
Q 1656 2200 1656 1722 
L 1656 0 
L 538 0 
L 538 3500 
L 1656 3500 
L 1656 2988 
Q 1909 3294 2193 3439 
Q 2478 3584 2822 3584 
Q 3428 3584 3742 3212 
Q 4056 2841 4056 2131 
z
" transform="scale(0.015625)"/>
      <path id="DejaVuSans-Bold-64" d="M 2919 2988 
L 2919 4863 
L 4044 4863 
L 4044 0 
L 2919 0 
L 2919 506 
Q 2688 197 2409 53 
Q 2131 -91 1766 -91 
Q 1119 -91 703 423 
Q 288 938 288 1747 
Q 288 2556 703 3070 
Q 1119 3584 1766 3584 
Q 2128 3584 2408 3439 
Q 2688 3294 2919 2988 
z
M 2181 722 
Q 2541 722 2730 984 
Q 2919 1247 2919 1747 
Q 2919 2247 2730 2509 
Q 2541 2772 2181 2772 
Q 1825 2772 1636 2509 
Q 1447 2247 1447 1747 
Q 1447 1247 1636 984 
Q 1825 722 2181 722 
z
" transform="scale(0.015625)"/>
      <path id="DejaVuSans-Bold-6f" d="M 2203 2784 
Q 1831 2784 1636 2517 
Q 1441 2250 1441 1747 
Q 1441 1244 1636 976 
Q 1831 709 2203 709 
Q 2569 709 2762 976 
Q 2956 1244 2956 1747 
Q 2956 2250 2762 2517 
Q 2569 2784 2203 2784 
z
M 2203 3584 
Q 3106 3584 3614 3096 
Q 4122 2609 4122 1747 
Q 4122 884 3614 396 
Q 3106 -91 2203 -91 
Q 1297 -91 786 396 
Q 275 884 275 1747 
Q 275 2609 786 3096 
Q 1297 3584 2203 3584 
z
" transform="scale(0.015625)"/>
      <path id="DejaVuSans-Bold-77" d="M 225 3500 
L 1313 3500 
L 1900 1088 
L 2491 3500 
L 3425 3500 
L 4013 1113 
L 4603 3500 
L 5691 3500 
L 4769 0 
L 3547 0 
L 2956 2406 
L 2369 0 
L 1147 0 
L 225 3500 
z
" transform="scale(0.015625)"/>
     </defs>
     <use xlink:href="#DejaVuSans-Bold-4c"/>
     <use xlink:href="#DejaVuSans-Bold-61" transform="translate(63.720703 0)"/>
     <use xlink:href="#DejaVuSans-Bold-74" transform="translate(131.201172 0)"/>
     <use xlink:href="#DejaVuSans-Bold-65" transform="translate(179.003906 0)"/>
     <use xlink:href="#DejaVuSans-Bold-20" transform="translate(246.826172 0)"/>
     <use xlink:href="#DejaVuSans-Bold-57" transform="translate(281.640625 0)"/>
     <use xlink:href="#DejaVuSans-Bold-69" transform="translate(391.943359 0)"/>
     <use xlink:href="#DejaVuSans-Bold-6e" transform="translate(426.220703 0)"/>
     <use xlink:href="#DejaVuSans-Bold-64" transform="translate(497.412109 0)"/>
     <use xlink:href="#DejaVuSans-Bold-6f" transform="translate(568.994141 0)"/>
     <use xlink:href="#DejaVuSans-Bold-77" transform="translate(637.695312 0)"/>
    </g>
   </g>
   <g id="text_18">
    <!-- No robust separation -->
    <g style="fill: #999999" transform="translate(203.46195 192.96915) scale(0.08 -0.08)">
     <defs>
      <path id="DejaVuSans-Oblique-4e" d="M 1081 4666 
L 1931 4666 
L 3219 666 
L 4000 4666 
L 4616 4666 
L 3706 0 
L 2853 0 
L 1569 4025 
L 788 0 
L 172 0 
L 1081 4666 
z
" transform="scale(0.015625)"/>
      <path id="DejaVuSans-Oblique-6f" d="M 1625 -91 
Q 1009 -91 651 289 
Q 294 669 294 1325 
Q 294 1706 417 2101 
Q 541 2497 738 2766 
Q 1047 3184 1428 3384 
Q 1809 3584 2291 3584 
Q 2888 3584 3255 3212 
Q 3622 2841 3622 2241 
Q 3622 1825 3500 1412 
Q 3378 1000 3181 728 
Q 2875 309 2494 109 
Q 2113 -91 1625 -91 
z
M 891 1344 
Q 891 869 1089 633 
Q 1288 397 1691 397 
Q 2269 397 2648 901 
Q 3028 1406 3028 2181 
Q 3028 2634 2825 2865 
Q 2622 3097 2228 3097 
Q 1903 3097 1650 2945 
Q 1397 2794 1197 2484 
Q 1050 2253 970 1956 
Q 891 1659 891 1344 
z
" transform="scale(0.015625)"/>
      <path id="DejaVuSans-Oblique-20" transform="scale(0.015625)"/>
      <path id="DejaVuSans-Oblique-72" d="M 2853 2969 
Q 2766 3016 2653 3041 
Q 2541 3066 2413 3066 
Q 1953 3066 1609 2717 
Q 1266 2369 1153 1784 
L 800 0 
L 225 0 
L 909 3500 
L 1484 3500 
L 1375 2956 
Q 1603 3259 1920 3421 
Q 2238 3584 2597 3584 
Q 2691 3584 2781 3573 
Q 2872 3563 2963 3538 
L 2853 2969 
z
" transform="scale(0.015625)"/>
      <path id="DejaVuSans-Oblique-62" d="M 3169 2138 
Q 3169 2591 2961 2847 
Q 2753 3103 2388 3103 
Q 2122 3103 1889 2973 
Q 1656 2844 1484 2597 
Q 1303 2338 1198 1995 
Q 1094 1653 1094 1313 
Q 1094 881 1298 636 
Q 1503 391 1863 391 
Q 2134 391 2365 517 
Q 2597 644 2772 891 
Q 2950 1147 3059 1487 
Q 3169 1828 3169 2138 
z
M 1381 2969 
Q 1594 3256 1914 3420 
Q 2234 3584 2584 3584 
Q 3122 3584 3439 3221 
Q 3756 2859 3756 2241 
Q 3756 1734 3570 1259 
Q 3384 784 3041 416 
Q 2816 172 2522 40 
Q 2228 -91 1906 -91 
Q 1566 -91 1316 65 
Q 1066 222 909 531 
L 806 0 
L 231 0 
L 1178 4863 
L 1753 4863 
L 1381 2969 
z
" transform="scale(0.015625)"/>
      <path id="DejaVuSans-Oblique-75" d="M 428 1388 
L 838 3500 
L 1416 3500 
L 1006 1409 
Q 975 1256 961 1147 
Q 947 1038 947 966 
Q 947 700 1109 554 
Q 1272 409 1569 409 
Q 2031 409 2368 721 
Q 2706 1034 2809 1563 
L 3194 3500 
L 3769 3500 
L 3091 0 
L 2516 0 
L 2631 550 
Q 2388 244 2052 76 
Q 1716 -91 1338 -91 
Q 878 -91 622 161 
Q 366 413 366 863 
Q 366 956 381 1097 
Q 397 1238 428 1388 
z
" transform="scale(0.015625)"/>
      <path id="DejaVuSans-Oblique-73" d="M 3200 3397 
L 3091 2853 
Q 2863 2978 2609 3040 
Q 2356 3103 2088 3103 
Q 1634 3103 1373 2948 
Q 1113 2794 1113 2528 
Q 1113 2219 1719 2053 
Q 1766 2041 1788 2034 
L 1972 1978 
Q 2547 1819 2739 1644 
Q 2931 1469 2931 1166 
Q 2931 609 2489 259 
Q 2047 -91 1331 -91 
Q 1053 -91 747 -37 
Q 441 16 72 128 
L 184 722 
Q 500 559 806 475 
Q 1113 391 1394 391 
Q 1816 391 2080 572 
Q 2344 753 2344 1031 
Q 2344 1331 1650 1516 
L 1591 1531 
L 1394 1581 
Q 956 1697 753 1886 
Q 550 2075 550 2369 
Q 550 2928 970 3256 
Q 1391 3584 2113 3584 
Q 2397 3584 2667 3537 
Q 2938 3491 3200 3397 
z
" transform="scale(0.015625)"/>
      <path id="DejaVuSans-Oblique-74" d="M 2706 3500 
L 2619 3053 
L 1472 3053 
L 1100 1153 
Q 1081 1047 1072 975 
Q 1063 903 1063 863 
Q 1063 663 1183 572 
Q 1303 481 1569 481 
L 2150 481 
L 2053 0 
L 1503 0 
Q 991 0 739 200 
Q 488 400 488 806 
Q 488 878 497 964 
Q 506 1050 525 1153 
L 897 3053 
L 409 3053 
L 500 3500 
L 978 3500 
L 1172 4494 
L 1747 4494 
L 1556 3500 
L 2706 3500 
z
" transform="scale(0.015625)"/>
      <path id="DejaVuSans-Oblique-65" d="M 3078 2063 
Q 3088 2113 3092 2166 
Q 3097 2219 3097 2272 
Q 3097 2653 2873 2875 
Q 2650 3097 2266 3097 
Q 1838 3097 1509 2826 
Q 1181 2556 1013 2059 
L 3078 2063 
z
M 3578 1613 
L 903 1613 
Q 884 1494 878 1425 
Q 872 1356 872 1306 
Q 872 872 1139 634 
Q 1406 397 1894 397 
Q 2269 397 2603 481 
Q 2938 566 3225 728 
L 3116 159 
Q 2806 34 2476 -28 
Q 2147 -91 1806 -91 
Q 1078 -91 686 257 
Q 294 606 294 1247 
Q 294 1794 489 2264 
Q 684 2734 1063 3103 
Q 1306 3334 1642 3459 
Q 1978 3584 2356 3584 
Q 2950 3584 3301 3228 
Q 3653 2872 3653 2272 
Q 3653 2128 3634 1964 
Q 3616 1800 3578 1613 
z
" transform="scale(0.015625)"/>
      <path id="DejaVuSans-Oblique-70" d="M 3175 2156 
Q 3175 2616 2975 2859 
Q 2775 3103 2400 3103 
Q 2144 3103 1911 2972 
Q 1678 2841 1497 2591 
Q 1319 2344 1212 1994 
Q 1106 1644 1106 1300 
Q 1106 863 1306 627 
Q 1506 391 1875 391 
Q 2147 391 2380 519 
Q 2613 647 2778 891 
Q 2956 1147 3065 1494 
Q 3175 1841 3175 2156 
z
M 1394 2969 
Q 1625 3272 1939 3428 
Q 2253 3584 2638 3584 
Q 3175 3584 3472 3232 
Q 3769 2881 3769 2247 
Q 3769 1728 3584 1258 
Q 3400 788 3053 416 
Q 2822 169 2531 39 
Q 2241 -91 1919 -91 
Q 1547 -91 1294 64 
Q 1041 219 916 525 
L 556 -1331 
L -19 -1331 
L 922 3500 
L 1497 3500 
L 1394 2969 
z
" transform="scale(0.015625)"/>
      <path id="DejaVuSans-Oblique-61" d="M 3438 1997 
L 3047 0 
L 2472 0 
L 2578 531 
Q 2325 219 2001 64 
Q 1678 -91 1281 -91 
Q 834 -91 548 182 
Q 263 456 263 884 
Q 263 1497 752 1853 
Q 1241 2209 2100 2209 
L 2900 2209 
L 2931 2363 
Q 2938 2388 2941 2417 
Q 2944 2447 2944 2509 
Q 2944 2788 2717 2942 
Q 2491 3097 2081 3097 
Q 1800 3097 1504 3025 
Q 1209 2953 897 2809 
L 997 3341 
Q 1322 3463 1633 3523 
Q 1944 3584 2234 3584 
Q 2853 3584 3176 3315 
Q 3500 3047 3500 2534 
Q 3500 2431 3484 2292 
Q 3469 2153 3438 1997 
z
M 2816 1759 
L 2241 1759 
Q 1534 1759 1195 1570 
Q 856 1381 856 984 
Q 856 709 1029 553 
Q 1203 397 1509 397 
Q 1978 397 2328 733 
Q 2678 1069 2791 1631 
L 2816 1759 
z
" transform="scale(0.015625)"/>
      <path id="DejaVuSans-Oblique-69" d="M 1172 4863 
L 1747 4863 
L 1606 4134 
L 1031 4134 
L 1172 4863 
z
M 909 3500 
L 1484 3500 
L 800 0 
L 225 0 
L 909 3500 
z
" transform="scale(0.015625)"/>
      <path id="DejaVuSans-Oblique-6e" d="M 3566 2113 
L 3156 0 
L 2578 0 
L 2988 2091 
Q 3016 2238 3031 2350 
Q 3047 2463 3047 2528 
Q 3047 2791 2881 2937 
Q 2716 3084 2419 3084 
Q 1956 3084 1622 2776 
Q 1288 2469 1184 1941 
L 800 0 
L 225 0 
L 903 3500 
L 1478 3500 
L 1363 2950 
Q 1603 3253 1940 3418 
Q 2278 3584 2650 3584 
Q 3113 3584 3367 3334 
Q 3622 3084 3622 2631 
Q 3622 2519 3608 2391 
Q 3594 2263 3566 2113 
z
" transform="scale(0.015625)"/>
     </defs>
     <use xlink:href="#DejaVuSans-Oblique-4e"/>
     <use xlink:href="#DejaVuSans-Oblique-6f" transform="translate(74.804688 0)"/>
     <use xlink:href="#DejaVuSans-Oblique-20" transform="translate(135.986328 0)"/>
     <use xlink:href="#DejaVuSans-Oblique-72" transform="translate(167.773438 0)"/>
     <use xlink:href="#DejaVuSans-Oblique-6f" transform="translate(208.886719 0)"/>
     <use xlink:href="#DejaVuSans-Oblique-62" transform="translate(270.068359 0)"/>
     <use xlink:href="#DejaVuSans-Oblique-75" transform="translate(333.544922 0)"/>
     <use xlink:href="#DejaVuSans-Oblique-73" transform="translate(396.923828 0)"/>
     <use xlink:href="#DejaVuSans-Oblique-74" transform="translate(449.023438 0)"/>
     <use xlink:href="#DejaVuSans-Oblique-20" transform="translate(488.232422 0)"/>
     <use xlink:href="#DejaVuSans-Oblique-73" transform="translate(520.019531 0)"/>
     <use xlink:href="#DejaVuSans-Oblique-65" transform="translate(572.119141 0)"/>
     <use xlink:href="#DejaVuSans-Oblique-70" transform="translate(633.642578 0)"/>
     <use xlink:href="#DejaVuSans-Oblique-61" transform="translate(697.119141 0)"/>
     <use xlink:href="#DejaVuSans-Oblique-72" transform="translate(758.398438 0)"/>
     <use xlink:href="#DejaVuSans-Oblique-61" transform="translate(799.511719 0)"/>
     <use xlink:href="#DejaVuSans-Oblique-74" transform="translate(860.791016 0)"/>
     <use xlink:href="#DejaVuSans-Oblique-69" transform="translate(900 0)"/>
     <use xlink:href="#DejaVuSans-Oblique-6f" transform="translate(927.783203 0)"/>
     <use xlink:href="#DejaVuSans-Oblique-6e" transform="translate(988.964844 0)"/>
    </g>
   </g>
   <g id="text_19">
    <!-- $p$ &lt; 0.001 -->
    <g style="fill: #c0392b" transform="translate(405.423969 45.2436) scale(0.1 -0.1)">
     <defs>
      <path id="DejaVuSans-Bold-3c" d="M 4684 3041 
L 1672 2003 
L 4684 972 
L 4684 191 
L 678 1638 
L 678 2375 
L 4684 3822 
L 4684 3041 
z
" transform="scale(0.015625)"/>
      <path id="DejaVuSans-Bold-30" d="M 2944 2338 
Q 2944 3213 2780 3570 
Q 2616 3928 2228 3928 
Q 1841 3928 1675 3570 
Q 1509 3213 1509 2338 
Q 1509 1453 1675 1090 
Q 1841 728 2228 728 
Q 2613 728 2778 1090 
Q 2944 1453 2944 2338 
z
M 4147 2328 
Q 4147 1169 3647 539 
Q 3147 -91 2228 -91 
Q 1306 -91 806 539 
Q 306 1169 306 2328 
Q 306 3491 806 4120 
Q 1306 4750 2228 4750 
Q 3147 4750 3647 4120 
Q 4147 3491 4147 2328 
z
" transform="scale(0.015625)"/>
      <path id="DejaVuSans-Bold-2e" d="M 653 1209 
L 1778 1209 
L 1778 0 
L 653 0 
L 653 1209 
z
" transform="scale(0.015625)"/>
      <path id="DejaVuSans-Bold-31" d="M 750 831 
L 1813 831 
L 1813 3847 
L 722 3622 
L 722 4441 
L 1806 4666 
L 2950 4666 
L 2950 831 
L 4013 831 
L 4013 0 
L 750 0 
L 750 831 
z
" transform="scale(0.015625)"/>
     </defs>
     <use xlink:href="#DejaVuSans-Oblique-70" transform="translate(0 0.78125)"/>
     <use xlink:href="#DejaVuSans-Bold-20" transform="translate(63.476562 0.78125)"/>
     <use xlink:href="#DejaVuSans-Bold-3c" transform="translate(98.291016 0.78125)"/>
     <use xlink:href="#DejaVuSans-Bold-20" transform="translate(182.080078 0.78125)"/>
     <use xlink:href="#DejaVuSans-Bold-30" transform="translate(216.894531 0.78125)"/>
     <use xlink:href="#DejaVuSans-Bold-2e" transform="translate(286.474609 0.78125)"/>
     <use xlink:href="#DejaVuSans-Bold-30" transform="translate(324.462891 0.78125)"/>
     <use xlink:href="#DejaVuSans-Bold-30" transform="translate(394.042969 0.78125)"/>
     <use xlink:href="#DejaVuSans-Bold-31" transform="translate(463.623047 0.78125)"/>
    </g>
   </g>
   <g id="text_20">
    <!-- $T_0$ -->
    <g style="fill: #c0392b" transform="translate(487.639405 58.262672) scale(0.085 -0.085)">
     <use xlink:href="#DejaVuSans-Oblique-54" transform="translate(0 0.09375)"/>
     <use xlink:href="#DejaVuSans-30" transform="translate(61.083984 -16.3125) scale(0.7)"/>
    </g>
   </g>
   <g id="legend_1">
    <g id="patch_7">
     <path d="M 50.586094 35.217188 
L 138.687656 35.217188 
Q 140.187656 35.217188 140.187656 33.717188 
L 140.187656 12.45 
Q 140.187656 10.95 138.687656 10.95 
L 50.586094 10.95 
Q 49.086094 10.95 49.086094 12.45 
L 49.086094 33.717188 
Q 49.086094 35.217188 50.586094 35.217188 
L 50.586094 35.217188 
z
" style="fill: none; opacity: 0"/>
    </g>
    <g id="line2d_18">
     <path d="M 52.086094 17.023828 
L 58.836094 17.023828 
L 65.586094 17.023828 
" style="fill: none; stroke: #d62728; stroke-width: 2.2; stroke-linecap: round"/>
    </g>
    <g id="text_21">
     <!-- Shock (n=725) -->
     <g transform="translate(69.336094 19.648828) scale(0.075 -0.075)">
      <defs>
       <path id="DejaVuSans-53" d="M 3425 4513 
L 3425 3897 
Q 3066 4069 2747 4153 
Q 2428 4238 2131 4238 
Q 1616 4238 1336 4038 
Q 1056 3838 1056 3469 
Q 1056 3159 1242 3001 
Q 1428 2844 1947 2747 
L 2328 2669 
Q 3034 2534 3370 2195 
Q 3706 1856 3706 1288 
Q 3706 609 3251 259 
Q 2797 -91 1919 -91 
Q 1588 -91 1214 -16 
Q 841 59 441 206 
L 441 856 
Q 825 641 1194 531 
Q 1563 422 1919 422 
Q 2459 422 2753 634 
Q 3047 847 3047 1241 
Q 3047 1584 2836 1778 
Q 2625 1972 2144 2069 
L 1759 2144 
Q 1053 2284 737 2584 
Q 422 2884 422 3419 
Q 422 4038 858 4394 
Q 1294 4750 2059 4750 
Q 2388 4750 2728 4690 
Q 3069 4631 3425 4513 
z
" transform="scale(0.015625)"/>
       <path id="DejaVuSans-6b" d="M 581 4863 
L 1159 4863 
L 1159 1991 
L 2875 3500 
L 3609 3500 
L 1753 1863 
L 3688 0 
L 2938 0 
L 1159 1709 
L 1159 0 
L 581 0 
L 581 4863 
z
" transform="scale(0.015625)"/>
       <path id="DejaVuSans-3d" d="M 678 2906 
L 4684 2906 
L 4684 2381 
L 678 2381 
L 678 2906 
z
M 678 1631 
L 4684 1631 
L 4684 1100 
L 678 1100 
L 678 1631 
z
" transform="scale(0.015625)"/>
       <path id="DejaVuSans-37" d="M 525 4666 
L 3525 4666 
L 3525 4397 
L 1831 0 
L 1172 0 
L 2766 4134 
L 525 4134 
L 525 4666 
z
" transform="scale(0.015625)"/>
       <path id="DejaVuSans-35" d="M 691 4666 
L 3169 4666 
L 3169 4134 
L 1269 4134 
L 1269 2991 
Q 1406 3038 1543 3061 
Q 1681 3084 1819 3084 
Q 2600 3084 3056 2656 
Q 3513 2228 3513 1497 
Q 3513 744 3044 326 
Q 2575 -91 1722 -91 
Q 1428 -91 1123 -41 
Q 819 9 494 109 
L 494 744 
Q 775 591 1075 516 
Q 1375 441 1709 441 
Q 2250 441 2565 725 
Q 2881 1009 2881 1497 
Q 2881 1984 2565 2268 
Q 2250 2553 1709 2553 
Q 1456 2553 1204 2497 
Q 953 2441 691 2322 
L 691 4666 
z
" transform="scale(0.015625)"/>
      </defs>
      <use xlink:href="#DejaVuSans-53"/>
      <use xlink:href="#DejaVuSans-68" transform="translate(63.476562 0)"/>
      <use xlink:href="#DejaVuSans-6f" transform="translate(126.855469 0)"/>
      <use xlink:href="#DejaVuSans-63" transform="translate(188.037109 0)"/>
      <use xlink:href="#DejaVuSans-6b" transform="translate(243.017578 0)"/>
      <use xlink:href="#DejaVuSans-20" transform="translate(300.927734 0)"/>
      <use xlink:href="#DejaVuSans-28" transform="translate(332.714844 0)"/>
      <use xlink:href="#DejaVuSans-6e" transform="translate(371.728516 0)"/>
      <use xlink:href="#DejaVuSans-3d" transform="translate(435.107422 0)"/>
      <use xlink:href="#DejaVuSans-37" transform="translate(518.896484 0)"/>
      <use xlink:href="#DejaVuSans-32" transform="translate(582.519531 0)"/>
      <use xlink:href="#DejaVuSans-35" transform="translate(646.142578 0)"/>
      <use xlink:href="#DejaVuSans-29" transform="translate(709.765625 0)"/>
     </g>
    </g>
    <g id="line2d_19">
     <path d="M 52.086094 28.032422 
L 58.836094 28.032422 
L 65.586094 28.032422 
" style="fill: none; stroke: #1f77b4; stroke-width: 2.2; stroke-linecap: round"/>
    </g>
    <g id="text_22">
     <!-- Control (n=1,447) -->
     <g transform="translate(69.336094 30.657422) scale(0.075 -0.075)">
      <defs>
       <path id="DejaVuSans-2c" d="M 750 794 
L 1409 794 
L 1409 256 
L 897 -744 
L 494 -744 
L 750 256 
L 750 794 
z
" transform="scale(0.015625)"/>
      </defs>
      <use xlink:href="#DejaVuSans-43"/>
      <use xlink:href="#DejaVuSans-6f" transform="translate(69.824219 0)"/>
      <use xlink:href="#DejaVuSans-6e" transform="translate(131.005859 0)"/>
      <use xlink:href="#DejaVuSans-74" transform="translate(194.384766 0)"/>
      <use xlink:href="#DejaVuSans-72" transform="translate(233.59375 0)"/>
      <use xlink:href="#DejaVuSans-6f" transform="translate(272.457031 0)"/>
      <use xlink:href="#DejaVuSans-6c" transform="translate(333.638672 0)"/>
      <use xlink:href="#DejaVuSans-20" transform="translate(361.421875 0)"/>
      <use xlink:href="#DejaVuSans-28" transform="translate(393.208984 0)"/>
      <use xlink:href="#DejaVuSans-6e" transform="translate(432.222656 0)"/>
      <use xlink:href="#DejaVuSans-3d" transform="translate(495.601562 0)"/>
      <use xlink:href="#DejaVuSans-31" transform="translate(579.390625 0)"/>
      <use xlink:href="#DejaVuSans-2c" transform="translate(643.013672 0)"/>
      <use xlink:href="#DejaVuSans-34" transform="translate(674.800781 0)"/>
      <use xlink:href="#DejaVuSans-34" transform="translate(738.423828 0)"/>
      <use xlink:href="#DejaVuSans-37" transform="translate(802.046875 0)"/>
      <use xlink:href="#DejaVuSans-29" transform="translate(865.669922 0)"/>
     </g>
    </g>
   </g>
  </g>
 </g>
 <defs>
  <clipPath id="pf3681e471f">
   <rect x="45.336094" y="7.2" width="450.494113" height="184.788"/>
  </clipPath>
 </defs>
</svg>
